# xmcd CD database file
#
# Track frame offsets:
#	150
#	29679
#	59264
#	77840
#	95703
#	114625
#	154111
#	169781
#
# Disc length: 2501 seconds
#
# Revision: 1
# Processed by: cddbd v1.5.2PL0 Copyright (c) Steve Scherf et al.
# Submitted via: CDex 1.51
#
DISCID=6609c308
DTITLE=Manu Codjia Trio - Covers
DYEAR=2010
DGENRE=Jazz
TTITLE0=Beat it
TTITLE1=Redemption Song
TTITLE2=Martha
TTITLE3=Requiem pour un con
TTITLE4=Halleluyah
TTITLE5=Hunting high and low
TTITLE6=Chisdren's play song
TTITLE7=Natural Mystic
EXTD=YEAR: 2010
EXTT0=
EXTT1=
EXTT2=
EXTT3=
EXTT4=
EXTT5=
EXTT6=
EXTT7=
PLAYORDER=
